<?xml version="1.0" encoding="utf-8"?>
<!-- Generator: Adobe Illustrator 26.5.0, SVG Export Plug-In . SVG Version: 6.00 Build 0)  -->
<svg version="1.1" id="Capa_1" xmlns="http://www.w3.org/2000/svg" xmlns:xlink="http://www.w3.org/1999/xlink" x="0px" y="0px"
	 viewBox="0 0 20 20" style="enable-background:new 0 0 20 20;" xml:space="preserve">
<style type="text/css">
	.st0{fill:#FFC700;}
</style>
<path class="st0" d="M14.1,0.1c0.3,0.1,0.4,0.4,0.3,0.7l-2.3,7.3h4.2c0.3,0,0.6,0.3,0.6,0.6c0,0.2-0.1,0.3-0.2,0.4l-10,10.6
	c-0.2,0.3-0.6,0.3-0.9,0c-0.2-0.2-0.2-0.4-0.2-0.6l2.3-7.3H3.8c-0.3,0-0.6-0.3-0.6-0.6c0-0.2,0.1-0.3,0.2-0.4l10-10.6
	C13.5,0,13.8-0.1,14.1,0.1L14.1,0.1z M5.2,10.6h3.6c0.3,0,0.6,0.3,0.6,0.6c0,0.1,0,0.1,0,0.2L7.6,17l7.2-7.6h-3.6
	c-0.3,0-0.6-0.3-0.6-0.6c0-0.1,0-0.1,0-0.2L12.4,3L5.2,10.6z"/>
<path class="st0" d="M5.2,10.6h3.6c0.3,0,0.6,0.3,0.6,0.6c0,0.1,0,0.1,0,0.2L7.6,17l7.2-7.6h-3.6c-0.3,0-0.6-0.3-0.6-0.6
	c0-0.1,0-0.1,0-0.2L12.4,3L5.2,10.6z"/>
</svg>
